<svg width="120" height="36" viewBox="0 0 120 36" fill="none" xmlns="http://www.w3.org/2000/svg">
<path d="M23.3129 3.57378L23.5546 33.9493" stroke="url(#paint0_linear)" stroke-width="1.54509"/>
<path d="M18.5901 10.262L17.0037 27.285" stroke="url(#paint1_linear)" stroke-width="1.05066"/>
<path d="M28.5464 12.7007L29.719 25.9991" stroke="#68C0E1" stroke-width="1.01423"/>
<path d="M38.6347 15.8243L40.6731 30.0611" stroke="url(#paint2_linear)" stroke-width="1.05066"/>
<path d="M8.35102 15.2063L6.33539 29.4229" stroke="#5950F8" stroke-width="1.05066"/>
<path fill-rule="evenodd" clip-rule="evenodd" d="M23.8864 5.00689C23.6587 4.55136 23.0086 4.55137 22.7809 5.00688L14.9465 20.6756C15.3579 21.2451 15.7666 21.8095 16.1702 22.3648C18.2191 25.1839 20.1407 27.7749 21.6526 29.6548C22.3835 30.5636 22.99 31.2702 23.452 31.7473C23.8981 31.3555 24.4759 30.7699 25.1754 29.9966C26.652 28.3641 28.5205 26.0635 30.5799 23.4303C31.0817 22.7886 31.5933 22.1292 32.1116 21.4573L23.8864 5.00689ZM34.6196 18.1814L27.2032 3.34852C25.6088 0.159873 21.0585 0.159863 19.4641 3.34852L12.499 17.2788C9.5788 13.2224 6.76671 9.32767 4.93691 7.07864C4.59018 6.65246 4.13856 6.23607 3.56843 5.98737C2.96574 5.72446 2.16478 5.63518 1.39918 6.04414C0.674832 6.43107 0.313054 7.08898 0.150619 7.62769C-0.0139123 8.17336 -0.0285463 8.74906 0.0346998 9.28876L2.26063 28.2834C2.76084 32.5518 8.50501 33.5586 10.427 29.7146L13.0765 24.4155C13.1079 24.4587 13.1392 24.5018 13.1705 24.5449C15.2206 27.3655 17.1889 30.0216 18.763 31.9788C19.546 32.9524 20.2624 33.792 20.8607 34.4014C21.156 34.7021 21.4649 34.9906 21.7691 35.2169C21.9212 35.3302 22.1114 35.4574 22.3296 35.5628C22.527 35.6581 22.8836 35.8031 23.3336 35.8031C23.9767 35.8031 24.5038 35.531 24.7927 35.3613C25.1323 35.1618 25.4672 34.9044 25.7822 34.6348C26.4162 34.0922 27.1447 33.3473 27.9255 32.4841C29.4958 30.748 31.4318 28.3603 33.5009 25.7147C33.6503 25.5237 33.8005 25.3311 33.9516 25.1371L36.4375 30.1091C38.3289 33.8918 43.9655 32.9929 44.5864 28.8096L47.5492 8.84973C47.9169 6.37298 44.7519 4.94456 43.1715 6.96878C41.3969 9.24193 39.3739 11.9119 37.3028 14.6455L37.024 15.0134C36.2252 16.0677 35.4203 17.1295 34.6196 18.1814ZM36.4662 21.8747L39.7543 28.4508C40.0245 28.9911 40.8297 28.8627 40.9184 28.2651L43.1786 13.0383C42.2321 14.28 41.2493 15.5771 40.2505 16.8954L39.9796 17.2529C38.8156 18.7892 37.6329 20.3491 36.4662 21.8747ZM10.626 21.0247C10.3456 20.6353 10.0658 20.2466 9.78737 19.8598C7.72205 16.9906 5.73018 14.2234 4.09058 12.039L5.94364 27.8518C5.96615 28.0438 6.03559 28.1498 6.10402 28.2178C6.1836 28.2968 6.3036 28.3628 6.45079 28.3886C6.59798 28.4144 6.73327 28.3932 6.83499 28.3459C6.92245 28.3053 7.02379 28.2292 7.11026 28.0563L10.626 21.0247ZM1.97113 9.32234C1.97114 9.32233 1.97155 9.32266 1.97238 9.32335C1.97154 9.3227 1.97113 9.32235 1.97113 9.32234ZM22.8733 32.1855C22.8736 32.1849 22.8824 32.1799 22.8992 32.1727C22.8815 32.1826 22.8731 32.1862 22.8733 32.1855ZM24.0029 32.2564C24.0044 32.2574 24.0051 32.2578 24.005 32.2578C24.005 32.2578 24.0043 32.2573 24.0029 32.2564Z" fill="url(#paint3_linear)"/>
<path d="M2.1709 9.02612L4.025 11.8073L5.87911 27.8762L4.64304 30.6574L2.1709 9.02612Z" fill="url(#paint4_linear)"/>
<path d="M26.8846 33.7131L25.3472 32.2024L44.1972 8.71704L43.2702 13.0433L34.919 23.8245L26.8846 33.7131Z" fill="url(#paint5_linear)"/>
<path d="M23.4928 3.15479V4.69987C22.8748 4.39086 22.5658 5.31791 22.5658 5.31791L16.3558 17.8071L10.2051 30.0393C10.2051 30.0393 9.89604 30.9664 8.65997 31.5844C7.4239 32.2024 7.10718 31.859 7.10718 31.859C7.10718 31.859 17.9136 9.81146 21.322 4.35642C21.9295 3.38412 23.3993 3.15479 23.4928 3.15479Z" fill="url(#paint6_linear)"/>
<path d="M12.3607 17.3349L10.8156 20.7341L8.34351 17.953L11.7427 16.0989L12.3607 17.3349Z" fill="url(#paint7_linear)"/>
<path d="M34.6435 18.1244L32.1098 21.3874L30.639 18.5248L33.8426 16.7228L34.6435 18.1244Z" fill="url(#paint8_linear)"/>
<path d="M58.4191 25.8064L56.2529 15.3478C56.1965 15.0996 56.2473 14.8796 56.4052 14.6878C56.5745 14.496 56.7832 14.4001 57.0314 14.4001H57.5222C57.8042 14.4001 58.0468 14.4904 58.2499 14.6709C58.453 14.8514 58.5771 15.0771 58.6222 15.3478L60.0268 24.2495C60.0268 24.2608 60.0325 24.2664 60.0437 24.2664C60.0663 24.2664 60.0776 24.2608 60.0776 24.2495L61.4315 15.3478C61.4766 15.0771 61.6007 14.8514 61.8038 14.6709C62.0069 14.4904 62.2494 14.4001 62.5315 14.4001H63.5469C63.8289 14.4001 64.0715 14.4904 64.2746 14.6709C64.4777 14.8514 64.6018 15.0771 64.6469 15.3478L66.0177 24.2495C66.0177 24.2608 66.0233 24.2664 66.0346 24.2664C66.0459 24.2664 66.0515 24.2608 66.0515 24.2495L67.4562 15.3478C67.5013 15.0771 67.6254 14.8514 67.8285 14.6709C68.0316 14.4904 68.2741 14.4001 68.5562 14.4001H68.9793C69.2275 14.4001 69.4305 14.496 69.5885 14.6878C69.7465 14.8796 69.8029 15.0996 69.7577 15.3478L67.5915 25.8064C67.5351 26.0772 67.3998 26.3029 67.1854 26.4834C66.971 26.6639 66.7228 26.7542 66.4408 26.7542H65.5438C65.2618 26.7542 65.0136 26.6639 64.7992 26.4834C64.5961 26.3029 64.472 26.0772 64.4269 25.8064L63.0223 16.9048C63.0223 16.8935 63.0166 16.8879 63.0053 16.8879C62.994 16.8879 62.9884 16.8935 62.9884 16.9048L61.5838 25.8064C61.5386 26.0772 61.4089 26.3029 61.1945 26.4834C60.9915 26.6639 60.7489 26.7542 60.4668 26.7542H59.5699C59.2878 26.7542 59.0396 26.6639 58.8253 26.4834C58.6109 26.3029 58.4755 26.0772 58.4191 25.8064ZM73.5135 26.7542C73.254 26.7542 73.0284 26.6583 72.8366 26.4665C72.6448 26.2747 72.5489 26.049 72.5489 25.7895V15.3648C72.5489 15.1053 72.6448 14.8796 72.8366 14.6878C73.0284 14.496 73.254 14.4001 73.5135 14.4001H74.1905C74.4499 14.4001 74.6756 14.496 74.8674 14.6878C75.0592 14.8796 75.1551 15.1053 75.1551 15.3648V25.7895C75.1551 26.049 75.0592 26.2747 74.8674 26.4665C74.6756 26.6583 74.4499 26.7542 74.1905 26.7542H73.5135ZM82.0862 21.5418C80.7324 21.0905 79.7508 20.5433 79.1416 19.9002C78.5436 19.2571 78.2446 18.4786 78.2446 17.5648C78.2446 16.5381 78.5888 15.7258 79.277 15.1278C79.9652 14.5299 80.9298 14.2309 82.1709 14.2309C83.2201 14.2309 84.134 14.3494 84.9124 14.5863C85.1832 14.6653 85.3976 14.8289 85.5555 15.0771C85.7247 15.314 85.8094 15.5791 85.8094 15.8725V16.0248C85.8094 16.2391 85.7135 16.4084 85.5217 16.5325C85.3299 16.6453 85.1324 16.6622 84.9294 16.5832C84.0832 16.2561 83.2201 16.0925 82.3401 16.0925C81.776 16.0925 81.3473 16.2222 81.0539 16.4817C80.7606 16.7412 80.6139 17.1022 80.6139 17.5648C80.6139 18.3771 81.1442 18.9581 82.2047 19.3079C83.7278 19.793 84.7827 20.3459 85.3694 20.9664C85.9673 21.5869 86.2663 22.3879 86.2663 23.3695C86.2663 25.7388 84.8052 26.9234 81.8832 26.9234C80.9693 26.9234 80.1401 26.7824 79.3954 26.5003C79.1247 26.3988 78.9103 26.2239 78.7523 25.9757C78.6057 25.7275 78.5323 25.4511 78.5323 25.1464V24.9434C78.5323 24.729 78.6226 24.5767 78.8031 24.4864C78.9836 24.3849 79.1698 24.3792 79.3616 24.4695C80.1062 24.8418 80.8903 25.028 81.7139 25.028C83.1468 25.028 83.8632 24.4864 83.8632 23.4033C83.8632 22.9633 83.7278 22.6023 83.457 22.3202C83.1863 22.0269 82.7293 21.7674 82.0862 21.5418ZM89.99 26.7542C89.7305 26.7542 89.5048 26.6583 89.313 26.4665C89.1212 26.2747 89.0253 26.049 89.0253 25.7895V15.3648C89.0253 15.1053 89.1212 14.8796 89.313 14.6878C89.5048 14.496 89.7305 14.4001 89.99 14.4001H95.7439C96.0034 14.4001 96.229 14.496 96.4208 14.6878C96.6126 14.8796 96.7085 15.1053 96.7085 15.3648C96.7085 15.6242 96.6126 15.8499 96.4208 16.0417C96.229 16.2222 96.0034 16.3125 95.7439 16.3125H91.5469C91.4454 16.3125 91.3946 16.3632 91.3946 16.4648V19.1894C91.3946 19.291 91.4454 19.3417 91.5469 19.3417H95.4562C95.7157 19.3417 95.93 19.432 96.0993 19.6125C96.2798 19.793 96.37 20.0074 96.37 20.2556C96.37 20.5038 96.2798 20.7182 96.0993 20.8987C95.93 21.0679 95.7157 21.1525 95.4562 21.1525H91.5469C91.4454 21.1525 91.3946 21.2033 91.3946 21.3048V24.6895C91.3946 24.791 91.4454 24.8418 91.5469 24.8418H95.7439C96.0034 24.8418 96.229 24.9377 96.4208 25.1295C96.6126 25.31 96.7085 25.53 96.7085 25.7895C96.7085 26.049 96.6126 26.2747 96.4208 26.4665C96.229 26.6583 96.0034 26.7542 95.7439 26.7542H89.99ZM102.049 16.3294V20.0017C102.049 20.092 102.1 20.1371 102.201 20.1371H103.047C105.056 20.1371 106.06 19.4207 106.06 17.9879C106.06 16.713 105.129 16.0755 103.267 16.0755C102.929 16.0755 102.573 16.1037 102.201 16.1602C102.1 16.1827 102.049 16.2391 102.049 16.3294ZM100.678 26.7542C100.419 26.7542 100.193 26.6583 100.001 26.4665C99.8094 26.2747 99.7135 26.049 99.7135 25.7895V15.4494C99.7135 15.1786 99.8037 14.936 99.9842 14.7217C100.165 14.5073 100.39 14.3888 100.661 14.3663C101.62 14.276 102.545 14.2309 103.437 14.2309C105.095 14.2309 106.336 14.5412 107.16 15.1617C107.983 15.7709 108.395 16.634 108.395 17.7509C108.395 18.552 108.175 19.2571 107.735 19.8664C107.306 20.4756 106.725 20.9043 105.992 21.1525C105.981 21.1525 105.975 21.1582 105.975 21.1695C105.975 21.192 105.981 21.2033 105.992 21.2033C106.534 21.5418 106.996 22.2074 107.38 23.2003L108.395 25.8572C108.474 26.0716 108.446 26.2747 108.31 26.4665C108.186 26.6583 108.012 26.7542 107.786 26.7542H107.261C106.968 26.7542 106.703 26.6752 106.466 26.5172C106.229 26.348 106.06 26.128 105.958 25.8572L105.01 23.251C104.807 22.7095 104.576 22.3541 104.317 22.1849C104.057 22.0156 103.611 21.931 102.98 21.931H102.201C102.1 21.931 102.049 21.9818 102.049 22.0833V25.7895C102.049 26.049 101.953 26.2747 101.761 26.4665C101.581 26.6583 101.361 26.7542 101.101 26.7542H100.678ZM111.912 26.7542C111.652 26.7542 111.426 26.6583 111.235 26.4665C111.043 26.2747 110.947 26.049 110.947 25.7895V15.3648C110.947 15.1053 111.043 14.8796 111.235 14.6878C111.426 14.496 111.652 14.4001 111.912 14.4001H117.666C117.925 14.4001 118.151 14.496 118.342 14.6878C118.534 14.8796 118.63 15.1053 118.63 15.3648C118.63 15.6242 118.534 15.8499 118.342 16.0417C118.151 16.2222 117.925 16.3125 117.666 16.3125H113.469C113.367 16.3125 113.316 16.3632 113.316 16.4648V19.1894C113.316 19.291 113.367 19.3417 113.469 19.3417H117.378C117.637 19.3417 117.852 19.432 118.021 19.6125C118.201 19.793 118.292 20.0074 118.292 20.2556C118.292 20.5038 118.201 20.7182 118.021 20.8987C117.852 21.0679 117.637 21.1525 117.378 21.1525H113.469C113.367 21.1525 113.316 21.2033 113.316 21.3048V24.6895C113.316 24.791 113.367 24.8418 113.469 24.8418H117.666C117.925 24.8418 118.151 24.9377 118.342 25.1295C118.534 25.31 118.63 25.53 118.63 25.7895C118.63 26.049 118.534 26.2747 118.342 26.4665C118.151 26.6583 117.925 26.7542 117.666 26.7542H111.912Z" fill="url(#paint9_linear)"/>
<defs>
<linearGradient id="paint0_linear" x1="23.1125" y1="2.54894" x2="23.9967" y2="33.9369" gradientUnits="userSpaceOnUse">
<stop stop-color="#3391F2"/>
<stop offset="1" stop-color="#409EF1"/>
</linearGradient>
<linearGradient id="paint1_linear" x1="19.0879" y1="10.3084" x2="17.5016" y2="27.3314" gradientUnits="userSpaceOnUse">
<stop stop-color="#3270EB"/>
<stop offset="1" stop-color="#3A7DF9"/>
</linearGradient>
<linearGradient id="paint2_linear" x1="38.4223" y1="15.8613" x2="40.8855" y2="30.0242" gradientUnits="userSpaceOnUse">
<stop stop-color="#66C0C2"/>
<stop offset="1" stop-color="#8ADDD0"/>
</linearGradient>
<linearGradient id="paint3_linear" x1="-10.1899" y1="22.3137" x2="51.3046" y2="24.4768" gradientUnits="userSpaceOnUse">
<stop stop-color="#9E00F0"/>
<stop offset="0.177083" stop-color="#7234F5"/>
<stop offset="0.338542" stop-color="#4D5FFA"/>
<stop offset="0.505208" stop-color="#2F90F9"/>
<stop offset="0.692708" stop-color="#73E4EB"/>
<stop offset="1" stop-color="#A8F8A1"/>
</linearGradient>
<linearGradient id="paint4_linear" x1="4.48853" y1="9.95318" x2="5.87911" y2="35.2926" gradientUnits="userSpaceOnUse">
<stop stop-color="#4D18B9"/>
<stop offset="1" stop-color="#5C4DF8" stop-opacity="0"/>
</linearGradient>
<linearGradient id="paint5_linear" x1="20.4029" y1="31.8934" x2="47.9055" y2="4.08178" gradientUnits="userSpaceOnUse">
<stop stop-color="#4BA8EC" stop-opacity="0"/>
<stop offset="1" stop-color="#52BEA0"/>
</linearGradient>
<linearGradient id="paint6_linear" x1="-0.301549" y1="24.477" x2="23.1838" y2="0.682636" gradientUnits="userSpaceOnUse">
<stop stop-color="#5345F9"/>
<stop offset="1" stop-color="#1063C0" stop-opacity="0"/>
</linearGradient>
<linearGradient id="paint7_linear" x1="12.6698" y1="18.88" x2="9.27056" y2="17.3349" gradientUnits="userSpaceOnUse">
<stop stop-color="#3451E7"/>
<stop offset="1" stop-color="#4E5DF9" stop-opacity="0"/>
</linearGradient>
<linearGradient id="paint8_linear" x1="34.7302" y1="19.6609" x2="33.2109" y2="17.7514" gradientUnits="userSpaceOnUse">
<stop stop-color="#57AFBF"/>
<stop offset="1" stop-color="#74CADB" stop-opacity="0"/>
</linearGradient>
<linearGradient id="paint9_linear" x1="135.372" y1="22.4808" x2="-2.05099" y2="21.7229" gradientUnits="userSpaceOnUse">
<stop stop-color="#4D5EFA"/>
<stop offset="0.709841" stop-color="#93E5CB"/>
<stop offset="1" stop-color="#93E5CB"/>
</linearGradient>
</defs>
</svg>
